<svg width="12" height="14" fill="none" xmlns="http://www.w3.org/2000/svg"><path fill="#E5E5E5" d="M0 0h12v14H0z"/><path fill="#F4F4F4" d="M-1167-208H685v3540h-1852z"/><path fill="#073042" d="M-1117-30H163v74h-1280z"/><rect x="-15" y="-8" width="107" height="30" rx="15" stroke="#F5F5F5" stroke-width="2"/><path fill-rule="evenodd" clip-rule="evenodd" d="M8 4a2 2 0 1 1-4 0 2 2 0 0 1 4 0zm2 0a4 4 0 1 1-8 0 4 4 0 0 1 8 0zM4 9a4 4 0 0 0-4 4v1h2v-1a2 2 0 0 1 2-2h4a2 2 0 0 1 2 2v1h2v-1a4 4 0 0 0-4-4H4z" fill="#fff"/></svg>